# ProBuilder 4.5.2
# https://unity3d.com/unity/features/worldbuilding/probuilder
# 8/11/2021 7:13:35 PM

mtllib ./Stairs2.mtl
o Stairs2

g Stairs2
v 0 0 0
v 10 0 0
v 0 0.7142857 0
v 10 0.7142857 0
v 9.9571 0.7142857 1.186101
v -0.01677036 0.7142857 0.4636655
v -0.01677036 1.428571 0.4636655
v 9.9571 1.428571 1.186101
v 9.828623 1.428571 2.366003
v -0.06699371 1.428571 0.924908
v -0.06699371 2.142857 0.924908
v 9.828623 2.142857 2.366003
v 9.615244 2.142857 3.53354
v -0.1504078 2.142857 1.381317
v -0.1504078 2.857143 1.381317
v 9.615244 2.857143 3.53354
v 9.318073 2.857143 4.682612
v -0.2665758 2.857143 1.830507
v -0.2665758 3.571429 1.830507
v 9.318073 3.571429 4.682612
v 8.938666 3.571429 5.807212
v -0.4148922 3.571429 2.270131
v -0.4148922 4.285714 2.270131
v 8.938666 4.285714 5.807212
v 8.479007 4.285714 6.901464
v -0.5945807 4.285714 2.697892
v -0.5945807 5 2.697892
v 8.479007 5 6.901464
v 7.941495 5 7.959649
v -0.8047023 5 3.111553
v -0.8047023 5.714286 3.111553
v 7.941495 5.714286 7.959649
v 7.32894 5.714286 8.976238
v -1.044159 5.714286 3.508954
v -1.044159 6.428571 3.508954
v 7.32894 6.428571 8.976238
v 6.644545 6.428571 9.945917
v -1.3117 6.428571 3.888016
v -1.3117 7.142857 3.888016
v 6.644545 7.142857 9.945917
v 5.891885 7.142857 10.86362
v -1.605927 7.142857 4.246761
v -1.605927 7.857143 4.246761
v 5.891885 7.857143 10.86362
v 5.074893 7.857143 11.72455
v -1.925303 7.857143 4.583312
v -1.925303 8.571428 4.583312
v 5.074893 8.571428 11.72455
v 4.19784 8.571428 12.52421
v -2.268157 8.571428 4.895911
v -2.268157 9.285714 4.895911
v 4.19784 9.285714 12.52421
v 3.265308 9.285714 13.25841
v -2.632698 9.285714 5.182924
v -2.632698 10 5.182924
v 3.265308 10 13.25841
v 2.282171 10 13.92333
v -3.017022 10 5.442851
v -0.01677036 0 0.4636655
v -0.06699371 0 0.924908
v -0.1504078 0 1.381317
v -0.2665758 0 1.830507
v -0.4148922 0 2.270131
v -0.5945807 0 2.697892
v -0.8047023 0 3.111553
v -1.044159 0 3.508954
v -1.3117 0 3.888016
v -1.605927 0 4.246761
v -1.925303 0 4.583312
v -2.268157 0 4.895911
v -2.632698 0 5.182924
v -3.017022 0 5.442851
v 9.9571 0 1.186101
v 9.828623 0 2.366003
v 9.615244 0 3.53354
v 9.318073 0 4.682612
v 8.938666 0 5.807212
v 8.479007 0 6.901464
v 7.941495 0 7.959649
v 7.32894 0 8.976238
v 6.644545 0 9.945917
v 5.891885 0 10.86362
v 5.074893 0 11.72455
v 4.19784 0 12.52421
v 3.265308 0 13.25841
v 2.282171 0 13.92333

vt 0 0
vt -10 0
vt 0 0.7142857
vt -10 0.7142857
vt 0.01817465 0.1808132
vt -9.975291 -0.1806443
vt -9.975291 1.006232
vt 0.01817417 0.6447819
vt -0.01677029 0.7142857
vt -10.01677 0.7142857
vt -0.01677029 1.428571
vt -10.01677 1.428571
vt 0.09057617 1.006358
vt -9.902889 0.6449044
vt -9.902888 1.831781
vt 0.09057617 1.470327
vt -0.06699362 1.428571
vt -10.06699 1.428571
vt -0.06699362 2.142857
vt -10.06699 2.142857
vt 0.221549 1.828197
vt -9.771915 1.466741
vt -9.771917 2.653617
vt 0.2215495 2.292165
vt -0.1504073 2.142857
vt -10.15041 2.142857
vt -0.1504073 2.857143
vt -10.15041 2.857143
vt 0.4100175 2.641912
vt -9.583448 2.28046
vt -9.583448 3.467336
vt 0.410017 3.10588
vt -0.2665762 2.857143
vt -10.26658 2.857143
vt -0.2665762 3.571429
vt -10.26658 3.571429
vt 0.6546245 3.443084
vt -9.33884 3.081631
vt -9.33884 4.268507
vt 0.6546249 3.907053
vt -0.4148919 3.571429
vt -10.41489 3.571429
vt -0.4148919 4.285714
vt -10.41489 4.285714
vt 0.9537511 4.227301
vt -9.039715 3.865847
vt -9.039715 5.052723
vt 0.9537511 4.69127
vt -0.5945804 4.285714
vt -10.59458 4.285714
vt -0.5945804 5
vt -10.59458 5
vt 1.305527 4.990192
vt -8.68794 4.628741
vt -8.687939 5.815617
vt 1.305526 5.454161
vt -0.8047024 5
vt -10.8047 5
vt -0.8047024 5.714286
vt -10.8047 5.714286
vt 1.707849 5.727465
vt -8.285617 5.366007
vt -8.285617 6.552884
vt 1.707849 6.191434
vt -1.04416 5.714286
vt -11.04416 5.714286
vt -1.04416 6.428571
vt -11.04416 6.428571
vt 2.158398 6.434911
vt -7.835068 6.073457
vt -7.835067 7.260334
vt 2.158398 6.89888
vt -1.311701 6.428571
vt -11.3117 6.428571
vt -1.311701 7.142857
vt -11.3117 7.142857
vt 2.654656 7.108466
vt -7.338809 6.747011
vt -7.338809 7.933886
vt 2.654656 7.572434
vt -1.605927 7.142857
vt -11.60593 7.142857
vt -1.605927 7.857143
vt -11.60593 7.857143
vt 3.193921 7.744211
vt -6.799545 7.382759
vt -6.799544 8.569635
vt 3.193921 8.208179
vt -1.925302 7.857143
vt -11.9253 7.857143
vt -1.925302 8.571428
vt -11.9253 8.571428
vt 3.773323 8.338424
vt -6.220142 7.97697
vt -6.220143 9.163847
vt 3.773323 8.802393
vt -2.268157 8.571428
vt -12.26816 8.571428
vt -2.268157 9.285714
vt -12.26816 9.285714
vt 4.389842 8.887588
vt -5.603623 8.526133
vt -5.603623 9.713008
vt 4.389843 9.351556
vt -2.632697 9.285714
vt -12.6327 9.285714
vt -2.632697 10
vt -12.6327 10
vt 5.040325 9.388426
vt -4.953141 9.026975
vt -4.95314 10.21385
vt 5.040325 9.852395
vt 0.4639687 0
vt 0.4639687 0.7142857
vt 0.4627564 0
vt 0.9267251 0
vt 0.4627564 0.7142857
vt 0.9267251 1.428571
vt 0.4627564 1.428571
vt 0.9218821 0
vt 1.385851 0
vt 0.9218821 1.428571
vt 1.385851 2.142857
vt 0.9218821 2.142857
vt 1.374978 0
vt 1.838947 0
vt 1.374978 2.142857
vt 1.838947 2.857143
vt 1.374978 2.857143
vt 1.819675 0
vt 2.283644 0
vt 1.819675 2.857143
vt 2.283644 3.571429
vt 1.819675 3.571429
vt 2.253651 0
vt 2.71762 0
vt 2.253651 3.571429
vt 2.71762 4.285714
vt 2.253651 4.285714
vt 2.674638 0
vt 3.138606 0
vt 2.674638 4.285714
vt 3.138606 5
vt 2.674638 5
vt 3.080434 0
vt 3.544403 0
vt 3.080434 5
vt 3.544403 5.714286
vt 3.080434 5.714286
vt 3.468919 0
vt 3.932888 0
vt 3.468919 5.714286
vt 3.932888 6.428571
vt 3.468919 6.428571
vt 3.838063 0
vt 4.302032 0
vt 3.838063 6.428571
vt 4.302032 7.142857
vt 3.838063 7.142857
vt 4.185939 0
vt 4.649909 0
vt 4.185939 7.142857
vt 4.649909 7.857143
vt 4.185939 7.857143
vt 4.510727 0
vt 4.974697 0
vt 4.510727 7.857143
vt 4.974697 8.571428
vt 4.510727 8.571428
vt 4.810727 0
vt 5.274695 0
vt 4.810727 8.571428
vt 5.274695 9.285714
vt 4.810727 9.285714
vt 5.084376 0
vt 5.548345 0
vt 5.084376 9.285714
vt 5.548345 10
vt 5.084376 10
vt 0.3614537 0
vt -0.8254226 0
vt 0.3614537 0.7142857
vt -0.8254226 0.7142857
vt -0.1012939 0
vt -1.28817 0
vt -0.1012939 0.7142857
vt -1.28817 1.428571
vt -0.1012939 1.428571
vt -0.5604432 0
vt -1.747319 0
vt -0.5604432 1.428571
vt -1.747319 2.142857
vt -0.5604432 2.142857
vt -1.01352 0
vt -2.200396 0
vt -1.01352 2.142857
vt -2.200396 2.857143
vt -1.01352 2.857143
vt -1.458218 0
vt -2.645094 0
vt -1.458218 2.857143
vt -2.645094 3.571429
vt -1.458218 3.571429
vt -1.892203 0
vt -3.079079 0
vt -1.892203 3.571429
vt -3.079079 4.285714
vt -1.892203 4.285714
vt -2.313182 0
vt -3.500058 0
vt -2.313182 4.285714
vt -3.500058 5
vt -2.313182 5
vt -2.71898 0
vt -3.905857 0
vt -2.71898 5
vt -3.905857 5.714286
vt -2.71898 5.714286
vt -3.107462 0
vt -4.294338 0
vt -3.107462 5.714286
vt -4.294338 6.428571
vt -3.107462 6.428571
vt -3.476611 0
vt -4.663486 0
vt -3.476611 6.428571
vt -4.663486 7.142857
vt -3.476611 7.142857
vt -3.824483 0
vt -5.011359 0
vt -3.824483 7.142857
vt -5.011359 7.857143
vt -3.824483 7.857143
vt -4.149282 0
vt -5.336159 0
vt -4.149282 7.857143
vt -5.336159 8.571428
vt -4.149282 8.571428
vt -4.449273 0
vt -5.636148 0
vt -4.449273 8.571428
vt -5.636148 9.285714
vt -4.449273 9.285714
vt -4.722921 0
vt -5.909797 0
vt -4.722921 9.285714
vt -5.909797 10
vt -4.722921 10
vt 3.017022 0
vt 13.01702 0
vt 3.017022 10
vt 13.01702 10

vn 0 0 -1
vn 0 1 0
vn 0.07224352 0 -0.9973871
vn 0.1441095 0 -0.9895618
vn 0.2152223 0 -0.9765651
vn 0.2852105 0 -0.9584649
vn 0.3537081 0 -0.9353558
vn 0.4203572 0 -0.9073587
vn 0.4848096 0 -0.8746197
vn 0.5467284 0 -0.83731
vn 0.6057901 0 -0.7956245
vn 0.6616858 0 -0.7497813
vn 0.7141237 0 -0.7000196
vn 0.7628295 0 -0.6465996
vn 0.8075489 0 -0.5898007
vn -0.9993466 0 -0.03614546
vn -0.997387 0 -0.07224358
vn -0.9964436 0 -0.08426227
vn -0.9895617 0 -0.1441097
vn -0.994124 0 -0.1082473
vn -0.9765651 0 -0.2152221
vn -0.9837062 0 -0.1797838
vn -0.958465 0 -0.2852104
vn -0.9681479 0 -0.2503791
vn -0.9353557 0 -0.3537084
vn -0.9475293 0 -0.319669
vn -0.9073588 0 -0.4203571
vn -0.9219598 0 -0.3872856
vn -0.8746198 0 -0.4848094
vn -0.8915719 0 -0.4528792
vn -0.83731 0 -0.5467284
vn -0.8565248 0 -0.5161059
vn -0.7956244 0 -0.6057903
vn -0.8170011 0 -0.5766362
vn -0.7497811 0 -0.6616859
vn -0.7732078 0 -0.6341527
vn -0.7000198 0 -0.7141234
vn -0.7253745 0 -0.6883545
vn -0.6465997 0 -0.7628295
vn -0.6737503 0 -0.7389591
vn -0.5898002 0 -0.8075492
vn -0.6186039 0 -0.7857031
vn -0.5602258 0 -0.8283399
vn 0.9993466 0 0.03614537
vn 0.997387 0 0.07224395
vn 0.9964436 0 0.0842628
vn 0.9895618 0 0.1441092
vn 0.9941239 0 0.1082481
vn 0.9765652 0 0.2152218
vn 0.9837065 0 0.179782
vn 0.9584648 0 0.2852109
vn 0.9681475 0 0.2503804
vn 0.9353558 0 0.353708
vn 0.9475294 0 0.3196686
vn 0.9073588 0 0.4203571
vn 0.9219599 0 0.3872853
vn 0.8746197 0 0.4848097
vn 0.8915717 0 0.4528795
vn 0.8373099 0 0.5467286
vn 0.8565246 0 0.5161062
vn 0.7956244 0 0.6057902
vn 0.817001 0 0.5766363
vn 0.7497811 0 0.6616859
vn 0.7732081 0 0.6341523
vn 0.7000198 0 0.7141235
vn 0.7253743 0 0.6883547
vn 0.6465999 0 0.7628294
vn 0.6737505 0 0.738959
vn 0.5898005 0 0.807549
vn 0.6186042 0 0.7857028
vn 0.5602258 0 0.8283399
vn -0.8480481 0 0.5299193

usemtl Lit
f 6/117/18 10/118/19 7/119/20
f 10/122/19 14/123/21 11/124/22
f 14/127/21 18/128/23 15/129/24
f 18/132/23 22/133/25 19/134/26
f 22/137/25 26/138/27 23/139/28
f 26/142/27 30/143/29 27/144/30
f 30/147/29 34/148/31 31/149/32
f 34/152/31 38/153/33 35/154/34
f 38/157/33 42/158/35 39/159/36
f 42/162/35 46/163/37 43/164/38
f 46/167/37 50/168/39 47/169/40
f 50/172/39 54/173/41 51/174/42
f 54/177/41 58/178/43 55/179/43
f 8/188/48 9/187/47 5/186/46
f 12/193/50 13/192/49 9/191/47
f 16/198/52 17/197/51 13/196/49
f 20/203/54 21/202/53 17/201/51
f 24/208/56 25/207/55 21/206/53
f 28/213/58 29/212/57 25/211/55
f 32/218/60 33/217/59 29/216/57
f 36/223/62 37/222/61 33/221/59
f 40/228/64 41/227/63 37/226/61
f 44/233/66 45/232/65 41/231/63
f 48/238/68 49/237/67 45/236/65
f 52/243/70 53/242/69 49/241/67
f 56/248/71 57/247/71 53/246/69
f 4/4/1 2/2/1 1/1/1
f 1/1/1 3/3/1 4/4/1
f 5/7/2 4/6/2 3/5/2
f 3/5/2 6/8/2 5/7/2
f 8/12/3 5/10/3 6/9/3
f 6/9/3 7/11/3 8/12/3
f 9/15/2 8/14/2 7/13/2
f 7/13/2 10/16/2 9/15/2
f 12/20/4 9/18/4 10/17/4
f 10/17/4 11/19/4 12/20/4
f 13/23/2 12/22/2 11/21/2
f 11/21/2 14/24/2 13/23/2
f 16/28/5 13/26/5 14/25/5
f 14/25/5 15/27/5 16/28/5
f 17/31/2 16/30/2 15/29/2
f 15/29/2 18/32/2 17/31/2
f 20/36/6 17/34/6 18/33/6
f 18/33/6 19/35/6 20/36/6
f 21/39/2 20/38/2 19/37/2
f 19/37/2 22/40/2 21/39/2
f 24/44/7 21/42/7 22/41/7
f 22/41/7 23/43/7 24/44/7
f 25/47/2 24/46/2 23/45/2
f 23/45/2 26/48/2 25/47/2
f 28/52/8 25/50/8 26/49/8
f 26/49/8 27/51/8 28/52/8
f 29/55/2 28/54/2 27/53/2
f 27/53/2 30/56/2 29/55/2
f 32/60/9 29/58/9 30/57/9
f 30/57/9 31/59/9 32/60/9
f 33/63/2 32/62/2 31/61/2
f 31/61/2 34/64/2 33/63/2
f 36/68/10 33/66/10 34/65/10
f 34/65/10 35/67/10 36/68/10
f 37/71/2 36/70/2 35/69/2
f 35/69/2 38/72/2 37/71/2
f 40/76/11 37/74/11 38/73/11
f 38/73/11 39/75/11 40/76/11
f 41/79/2 40/78/2 39/77/2
f 39/77/2 42/80/2 41/79/2
f 44/84/12 41/82/12 42/81/12
f 42/81/12 43/83/12 44/84/12
f 45/87/2 44/86/2 43/85/2
f 43/85/2 46/88/2 45/87/2
f 48/92/13 45/90/13 46/89/13
f 46/89/13 47/91/13 48/92/13
f 49/95/2 48/94/2 47/93/2
f 47/93/2 50/96/2 49/95/2
f 52/100/14 49/98/14 50/97/14
f 50/97/14 51/99/14 52/100/14
f 53/103/2 52/102/2 51/101/2
f 51/101/2 54/104/2 53/103/2
f 56/108/15 53/106/15 54/105/15
f 54/105/15 55/107/15 56/108/15
f 57/111/2 56/110/2 55/109/2
f 55/109/2 58/112/2 57/111/2
f 3/3/16 1/1/16 59/113/17
f 59/113/17 6/114/18 3/3/16
f 6/117/18 59/115/17 60/116/19
f 60/116/19 10/118/19 6/117/18
f 10/122/19 60/120/19 61/121/21
f 61/121/21 14/123/21 10/122/19
f 14/127/21 61/125/21 62/126/23
f 62/126/23 18/128/23 14/127/21
f 18/132/23 62/130/23 63/131/25
f 63/131/25 22/133/25 18/132/23
f 22/137/25 63/135/25 64/136/27
f 64/136/27 26/138/27 22/137/25
f 26/142/27 64/140/27 65/141/29
f 65/141/29 30/143/29 26/142/27
f 30/147/29 65/145/29 66/146/31
f 66/146/31 34/148/31 30/147/29
f 34/152/31 66/150/31 67/151/33
f 67/151/33 38/153/33 34/152/31
f 38/157/33 67/155/33 68/156/35
f 68/156/35 42/158/35 38/157/33
f 42/162/35 68/160/35 69/161/37
f 69/161/37 46/163/37 42/162/35
f 46/167/37 69/165/37 70/166/39
f 70/166/39 50/168/39 46/167/37
f 50/172/39 70/170/39 71/171/41
f 71/171/41 54/173/41 50/172/39
f 54/177/41 71/175/41 72/176/43
f 72/176/43 58/178/43 54/177/41
f 5/183/46 73/181/45 2/180/44
f 2/180/44 4/182/44 5/183/46
f 9/187/47 74/185/47 73/184/45
f 73/184/45 5/186/46 9/187/47
f 13/192/49 75/190/49 74/189/47
f 74/189/47 9/191/47 13/192/49
f 17/197/51 76/195/51 75/194/49
f 75/194/49 13/196/49 17/197/51
f 21/202/53 77/200/53 76/199/51
f 76/199/51 17/201/51 21/202/53
f 25/207/55 78/205/55 77/204/53
f 77/204/53 21/206/53 25/207/55
f 29/212/57 79/210/57 78/209/55
f 78/209/55 25/211/55 29/212/57
f 33/217/59 80/215/59 79/214/57
f 79/214/57 29/216/57 33/217/59
f 37/222/61 81/220/61 80/219/59
f 80/219/59 33/221/59 37/222/61
f 41/227/63 82/225/63 81/224/61
f 81/224/61 37/226/61 41/227/63
f 45/232/65 83/230/65 82/229/63
f 82/229/63 41/231/63 45/232/65
f 49/237/67 84/235/67 83/234/65
f 83/234/65 45/236/65 49/237/67
f 53/242/69 85/240/69 84/239/67
f 84/239/67 49/241/67 53/242/69
f 57/247/71 86/245/71 85/244/69
f 85/244/69 53/246/69 57/247/71
f 58/251/72 72/249/72 86/250/72
f 86/250/72 57/252/72 58/251/72

