# ProBuilder 4.5.2
# https://unity3d.com/unity/features/worldbuilding/probuilder
# 8/12/2021 1:52:19 PM

mtllib ./Stairs3.mtl
o Stairs3

g Stairs
v 0 0 0
v 5.952769 0 0
v 0 0.2393968 0
v 5.952769 0.2393968 0
v 0 0.2393968 0.5223675
v 5.952769 0.2393968 0.5223675
v 0 0.4787935 0.5223675
v 5.952769 0.4787935 0.5223675
v 0 0.4787935 1.044735
v 5.952769 0.4787935 1.044735
v 0 0.7181902 1.044735
v 5.952769 0.7181902 1.044735
v 0 0.7181902 1.567102
v 5.952769 0.7181902 1.567102
v 0 0.957587 1.567102
v 5.952769 0.957587 1.567102
v 0 0.957587 2.08947
v 5.952769 0.957587 2.08947
v 0 1.196984 2.08947
v 5.952769 1.196984 2.08947
v 0 1.196984 2.611837
v 5.952769 1.196984 2.611837
v 0 1.43638 2.611837
v 5.952769 1.43638 2.611837
v 0 1.43638 3.134205
v 5.952769 1.43638 3.134205
v 0 1.675777 3.134205
v 5.952769 1.675777 3.134205
v 0 1.675777 3.656573
v 5.952769 1.675777 3.656573
v 0 1.915174 3.656573
v 5.952769 1.915174 3.656573
v 0 1.915174 4.17894
v 5.952769 1.915174 4.17894
v 0 2.154571 4.17894
v 5.952769 2.154571 4.17894
v 0 2.154571 4.701307
v 5.952769 2.154571 4.701307
v 0 2.393967 4.701307
v 5.952769 2.393967 4.701307
v 0 2.393967 5.223675
v 5.952769 2.393967 5.223675
v 0 2.633364 5.223675
v 5.952769 2.633364 5.223675
v 0 2.633364 5.746042
v 5.952769 2.633364 5.746042
v 0 2.872761 5.746042
v 5.952769 2.872761 5.746042
v 0 2.872761 6.26841
v 5.952769 2.872761 6.26841
v 0 3.112158 6.26841
v 5.952769 3.112158 6.26841
v 0 3.112158 6.790777
v 5.952769 3.112158 6.790777
v 5.952769 0 0.5223675
v 5.952769 0 1.044735
v 5.952769 0 1.567102
v 5.952769 0 2.08947
v 5.952769 0 2.611837
v 5.952769 0 3.134205
v 5.952769 0 3.656572
v 5.952769 0 4.17894
v 5.952769 0 4.701307
v 5.952769 0 5.223675
v 5.952769 0 5.746042
v 5.952769 0 6.26841
v 5.952769 0 6.790777
v 0 0 0.5223675
v 0 0 1.044735
v 0 0 1.567102
v 0 0 2.08947
v 0 0 2.611837
v 0 0 3.134205
v 0 0 3.656572
v 0 0 4.17894
v 0 0 4.701307
v 0 0 5.223675
v 0 0 5.746042
v 0 0 6.26841
v 0 0 6.790777

vt 0 0
vt -5.952769 0
vt 0 0.2393968
vt -5.952769 0.2393968
vt 0 0.5223675
vt -5.952769 0.5223675
vt 0 0.4787935
vt -5.952769 0.4787935
vt 0 1.044735
vt -5.952769 1.044735
vt 0 0.7181902
vt -5.952769 0.7181902
vt 0 1.567102
vt -5.952769 1.567102
vt 0 0.957587
vt -5.952769 0.957587
vt 0 2.08947
vt -5.952769 2.08947
vt 0 1.196984
vt -5.952769 1.196984
vt 0 2.611837
vt -5.952769 2.611837
vt 0 1.43638
vt -5.952769 1.43638
vt 0 3.134205
vt -5.952769 3.134205
vt 0 1.675777
vt -5.952769 1.675777
vt 0 3.656573
vt -5.952769 3.656573
vt 0 1.915174
vt -5.952769 1.915174
vt 0 4.17894
vt -5.952769 4.17894
vt 0 2.154571
vt -5.952769 2.154571
vt 0 4.701307
vt -5.952769 4.701307
vt 0 2.393967
vt -5.952769 2.393967
vt 0 5.223675
vt -5.952769 5.223675
vt 0 2.633364
vt -5.952769 2.633364
vt 0 5.746042
vt -5.952769 5.746042
vt 0 2.872761
vt -5.952769 2.872761
vt 0 6.26841
vt -5.952769 6.26841
vt 0 3.112158
vt -5.952769 3.112158
vt 0 6.790777
vt -5.952769 6.790777
vt -0.5223675 0
vt -0.5223675 0.2393967
vt -1.044735 0
vt -1.044735 0.4787935
vt -0.5223675 0.4787935
vt -1.567102 0
vt -1.567102 0.7181902
vt -1.044735 0.7181902
vt -2.08947 0
vt -2.08947 0.9575869
vt -1.567102 0.9575869
vt -2.611837 0
vt -2.611837 1.196984
vt -2.08947 1.196984
vt -3.134205 0
vt -3.134205 1.43638
vt -2.611837 1.43638
vt -3.656572 0
vt -3.656572 1.675777
vt -3.134205 1.675777
vt -4.17894 0
vt -4.17894 1.915174
vt -3.656572 1.915174
vt -4.701307 0
vt -4.701307 2.154571
vt -4.17894 2.154571
vt -5.223675 0
vt -5.223675 2.393967
vt -4.701307 2.393967
vt -5.746042 0
vt -5.746042 2.633364
vt -5.223675 2.633364
vt -6.26841 0
vt -6.26841 2.872761
vt -5.746042 2.872761
vt -6.790777 0
vt -6.790777 3.112158
vt -6.26841 3.112158
vt 0.5223675 0
vt 0.5223675 0.2393967
vt 1.044735 0
vt 1.044735 0.4787935
vt 0.5223675 0.4787935
vt 1.567102 0
vt 1.567102 0.7181902
vt 1.044735 0.7181902
vt 2.08947 0
vt 2.08947 0.9575869
vt 1.567102 0.9575869
vt 2.611837 0
vt 2.611837 1.196984
vt 2.08947 1.196984
vt 3.134205 0
vt 3.134205 1.43638
vt 2.611837 1.43638
vt 3.656572 0
vt 3.656572 1.675777
vt 3.134205 1.675777
vt 4.17894 0
vt 4.17894 1.915174
vt 3.656572 1.915174
vt 4.701307 0
vt 4.701307 2.154571
vt 4.17894 2.154571
vt 5.223675 0
vt 5.223675 2.393967
vt 4.701307 2.393967
vt 5.746042 0
vt 5.746042 2.633364
vt 5.223675 2.633364
vt 6.26841 0
vt 6.26841 2.872761
vt 5.746042 2.872761
vt 6.790777 0
vt 6.790777 3.112158
vt 6.26841 3.112158
vt 5.952769 0
vt 5.952769 3.112158

vn 0 0 -1
vn 0 1 0
vn 1 0 0
vn -1 0 0
vn 0 0 1

usemtl Lit
f 6/56/3 8/59/3 10/58/3
f 10/58/3 12/62/3 14/61/3
f 14/61/3 16/65/3 18/64/3
f 18/64/3 20/68/3 22/67/3
f 22/67/3 24/71/3 26/70/3
f 26/70/3 28/74/3 30/73/3
f 30/73/3 32/77/3 34/76/3
f 34/76/3 36/80/3 38/79/3
f 38/79/3 40/83/3 42/82/3
f 42/82/3 44/86/3 46/85/3
f 46/85/3 48/89/3 50/88/3
f 50/88/3 52/92/3 54/91/3
f 9/96/4 7/97/4 5/94/4
f 13/99/4 11/100/4 9/96/4
f 17/102/4 15/103/4 13/99/4
f 21/105/4 19/106/4 17/102/4
f 25/108/4 23/109/4 21/105/4
f 29/111/4 27/112/4 25/108/4
f 33/114/4 31/115/4 29/111/4
f 37/117/4 35/118/4 33/114/4
f 41/120/4 39/121/4 37/117/4
f 45/123/4 43/124/4 41/120/4
f 49/126/4 47/127/4 45/123/4
f 53/129/4 51/130/4 49/126/4
f 4/4/1 2/2/1 1/1/1
f 1/1/1 3/3/1 4/4/1
f 6/6/2 4/2/2 3/1/2
f 3/1/2 5/5/2 6/6/2
f 8/8/1 6/4/1 5/3/1
f 5/3/1 7/7/1 8/8/1
f 10/10/2 8/6/2 7/5/2
f 7/5/2 9/9/2 10/10/2
f 12/12/1 10/8/1 9/7/1
f 9/7/1 11/11/1 12/12/1
f 14/14/2 12/10/2 11/9/2
f 11/9/2 13/13/2 14/14/2
f 16/16/1 14/12/1 13/11/1
f 13/11/1 15/15/1 16/16/1
f 18/18/2 16/14/2 15/13/2
f 15/13/2 17/17/2 18/18/2
f 20/20/1 18/16/1 17/15/1
f 17/15/1 19/19/1 20/20/1
f 22/22/2 20/18/2 19/17/2
f 19/17/2 21/21/2 22/22/2
f 24/24/1 22/20/1 21/19/1
f 21/19/1 23/23/1 24/24/1
f 26/26/2 24/22/2 23/21/2
f 23/21/2 25/25/2 26/26/2
f 28/28/1 26/24/1 25/23/1
f 25/23/1 27/27/1 28/28/1
f 30/30/2 28/26/2 27/25/2
f 27/25/2 29/29/2 30/30/2
f 32/32/1 30/28/1 29/27/1
f 29/27/1 31/31/1 32/32/1
f 34/34/2 32/30/2 31/29/2
f 31/29/2 33/33/2 34/34/2
f 36/36/1 34/32/1 33/31/1
f 33/31/1 35/35/1 36/36/1
f 38/38/2 36/34/2 35/33/2
f 35/33/2 37/37/2 38/38/2
f 40/40/1 38/36/1 37/35/1
f 37/35/1 39/39/1 40/40/1
f 42/42/2 40/38/2 39/37/2
f 39/37/2 41/41/2 42/42/2
f 44/44/1 42/40/1 41/39/1
f 41/39/1 43/43/1 44/44/1
f 46/46/2 44/42/2 43/41/2
f 43/41/2 45/45/2 46/46/2
f 48/48/1 46/44/1 45/43/1
f 45/43/1 47/47/1 48/48/1
f 50/50/2 48/46/2 47/45/2
f 47/45/2 49/49/2 50/50/2
f 52/52/1 50/48/1 49/47/1
f 49/47/1 51/51/1 52/52/1
f 54/54/2 52/50/2 51/49/2
f 51/49/2 53/53/2 54/54/2
f 6/56/3 55/55/3 2/1/3
f 2/1/3 4/3/3 6/56/3
f 10/58/3 56/57/3 55/55/3
f 55/55/3 6/56/3 10/58/3
f 14/61/3 57/60/3 56/57/3
f 56/57/3 10/58/3 14/61/3
f 18/64/3 58/63/3 57/60/3
f 57/60/3 14/61/3 18/64/3
f 22/67/3 59/66/3 58/63/3
f 58/63/3 18/64/3 22/67/3
f 26/70/3 60/69/3 59/66/3
f 59/66/3 22/67/3 26/70/3
f 30/73/3 61/72/3 60/69/3
f 60/69/3 26/70/3 30/73/3
f 34/76/3 62/75/3 61/72/3
f 61/72/3 30/73/3 34/76/3
f 38/79/3 63/78/3 62/75/3
f 62/75/3 34/76/3 38/79/3
f 42/82/3 64/81/3 63/78/3
f 63/78/3 38/79/3 42/82/3
f 46/85/3 65/84/3 64/81/3
f 64/81/3 42/82/3 46/85/3
f 50/88/3 66/87/3 65/84/3
f 65/84/3 46/85/3 50/88/3
f 54/91/3 67/90/3 66/87/3
f 66/87/3 50/88/3 54/91/3
f 3/3/4 1/1/4 68/93/4
f 68/93/4 5/94/4 3/3/4
f 5/94/4 68/93/4 69/95/4
f 69/95/4 9/96/4 5/94/4
f 9/96/4 69/95/4 70/98/4
f 70/98/4 13/99/4 9/96/4
f 13/99/4 70/98/4 71/101/4
f 71/101/4 17/102/4 13/99/4
f 17/102/4 71/101/4 72/104/4
f 72/104/4 21/105/4 17/102/4
f 21/105/4 72/104/4 73/107/4
f 73/107/4 25/108/4 21/105/4
f 25/108/4 73/107/4 74/110/4
f 74/110/4 29/111/4 25/108/4
f 29/111/4 74/110/4 75/113/4
f 75/113/4 33/114/4 29/111/4
f 33/114/4 75/113/4 76/116/4
f 76/116/4 37/117/4 33/114/4
f 37/117/4 76/116/4 77/119/4
f 77/119/4 41/120/4 37/117/4
f 41/120/4 77/119/4 78/122/4
f 78/122/4 45/123/4 41/120/4
f 45/123/4 78/122/4 79/125/4
f 79/125/4 49/126/4 45/123/4
f 49/126/4 79/125/4 80/128/4
f 80/128/4 53/129/4 49/126/4
f 53/51/5 80/1/5 67/131/5
f 67/131/5 54/132/5 53/51/5

