# ProBuilder 4.5.2
# https://unity3d.com/unity/features/worldbuilding/probuilder
# 8/11/2021 7:13:35 PM

mtllib ./Stairs.mtl
o Stairs

g Stairs
v 0 0 0
v -10 0 0
v 0 0.7142857 0
v -10 0.7142857 0
v -9.965679 0.7142857 1.171193
v 0.01716042 0.7142857 0.5855967
v 0.01716042 1.428571 0.5855967
v -9.965679 1.428571 1.171193
v -9.862831 1.428571 2.338367
v 0.06858444 1.428571 1.169184
v 0.06858444 2.142857 1.169184
v -9.862831 2.142857 2.338367
v -9.691811 2.142857 3.497515
v 0.1540947 2.142857 1.748758
v 0.1540947 2.857143 1.748758
v -9.691811 2.857143 3.497515
v -9.453203 2.857143 4.644659
v 0.2733984 2.857143 2.32233
v 0.2733984 3.571429 2.32233
v -9.453203 3.571429 4.644659
v -9.147831 3.571429 5.775862
v 0.4260845 3.571429 2.887931
v 0.4260845 4.285714 2.887931
v -9.147831 4.285714 5.775862
v -8.776739 4.285714 6.887241
v 0.6116304 4.285714 3.44362
v 0.6116304 5 3.44362
v -8.776739 5 6.887241
v -8.341202 5 7.974982
v 0.8293991 5 3.987491
v 0.8293991 5.714286 3.987491
v -8.341202 5.714286 7.974982
v -7.842714 5.714286 9.03535
v 1.078643 5.714286 4.517675
v 1.078643 6.428571 4.517675
v -7.842714 6.428571 9.03535
v -7.282988 6.428571 10.06471
v 1.358506 6.428571 5.032354
v 1.358506 7.142857 5.032354
v -7.282988 7.142857 10.06471
v -6.663942 7.142857 11.05952
v 1.668029 7.142857 5.529761
v 1.668029 7.857143 5.529761
v -6.663942 7.857143 11.05952
v -5.987702 7.857143 12.01638
v 2.006149 7.857143 6.008189
v 2.006149 8.571428 6.008189
v -5.987702 8.571428 12.01638
v -5.256591 8.571428 12.93199
v 2.371705 8.571428 6.465997
v 2.371705 9.285714 6.465997
v -5.256591 9.285714 12.93199
v -4.473116 9.285714 13.80322
v 2.763442 9.285714 6.90161
v 2.763442 10 6.90161
v -4.473116 10 13.80322
v -3.639967 10 14.62707
v 3.180017 10 7.313537
v 0.01716042 0 0.5855967
v 0.06858444 0 1.169184
v 0.1540947 0 1.748758
v 0.2733984 0 2.32233
v 0.4260845 0 2.887931
v 0.6116304 0 3.44362
v 0.8293991 0 3.987491
v 1.078643 0 4.517675
v 1.358506 0 5.032354
v 1.668029 0 5.529761
v 2.006149 0 6.008189
v 2.371705 0 6.465997
v 2.763442 0 6.90161
v 3.180017 0 7.313537
v -9.965679 0 1.171193
v -9.862831 0 2.338367
v -9.691811 0 3.497515
v -9.453203 0 4.644659
v -9.147831 0 5.775862
v -8.776739 0 6.887241
v -8.341202 0 7.974982
v -7.842714 0 9.03535
v -7.282988 0 10.06471
v -6.663942 0 11.05952
v -5.987702 0 12.01638
v -5.256591 0 12.93199
v -4.473116 0 13.80322
v -3.639967 0 14.62707

vt 0 0
vt 10 0
vt 0 0.7142857
vt 10 0.7142857
vt 0.01929522 -0.1459575
vt 10.015 0.1469628
vt 9.946392 1.316648
vt -0.01501131 0.4388852
vt 0.01716139 0.7142857
vt 10.01716 0.7142857
vt 0.01716139 1.428571
vt 10.01716 1.428571
vt 0.07893229 0.1531075
vt 9.971838 1.612702
vt 9.766937 2.766343
vt -0.02351856 0.7299281
vt 0.06858498 1.428571
vt 10.06859 1.428571
vt 0.06858498 2.142857
vt 10.06859 2.142857
vt 0.1540585 0.4630995
vt 9.808461 3.069346
vt 9.470083 4.191118
vt -0.01513052 1.023986
vt 0.1540951 2.142857
vt 10.1541 2.142857
vt 0.1540951 2.857143
vt 10.1541 2.857143
vt 0.2426763 0.7887282
vt 9.526146 4.505877
vt 9.058932 5.580393
vt 0.009069443 1.325986
vt 0.2733977 2.857143
vt 10.2734 2.857143
vt 0.2733977 3.571429
vt 10.2734 3.571429
vt 0.3420763 1.134406
vt 9.127272 5.91147
vt 8.537634 6.923991
vt 0.04725695 1.640667
vt 0.4260848 3.571429
vt 10.42609 3.571429
vt 0.4260848 4.285714
vt 10.42609 4.285714
vt 0.4488838 1.504159
vt 8.615299 7.275611
vt 7.911323 8.212248
vt 0.09689522 1.972477
vt 0.611631 4.285714
vt 10.61163 4.285714
vt 0.611631 5
vt 10.61163 5
vt 0.5591087 1.901538
vt 7.994726 8.588211
vt 7.186067 9.436116
vt 0.154779 2.325491
vt 0.8293996 5
vt 10.8294 5
vt 0.8293996 5.714286
vt 10.8294 5.714286
vt 0.6682081 2.329545
vt 7.271037 9.839716
vt 6.368789 10.58726
vt 0.2170842 2.703316
vt 1.078643 5.714286
vt 11.07864 5.714286
vt 1.078643 6.428571
vt 11.07864 6.428571
vt 0.7711689 2.790555
vt 6.450635 11.02121
vt 5.467174 11.65814
vt 0.2794383 3.109018
vt 1.358506 6.428571
vt 11.35851 6.428571
vt 1.358506 7.142857
vt 11.35851 7.142857
vt 0.8625751 3.286267
vt 5.540773 12.12451
vt 4.489588 12.64208
vt 0.3369823 3.545053
vt 1.668029 7.142857
vt 11.66803 7.142857
vt 1.668029 7.857143
vt 11.66803 7.857143
vt 0.9367003 3.817643
vt 4.54946 13.14223
vt 3.44497 13.53335
vt 0.384455 4.013203
vt 2.006148 7.857143
vt 12.00615 7.857143
vt 2.006148 8.571428
vt 12.00615 8.571428
vt 0.987608 4.384872
vt 3.485373 14.06791
vt 2.342728 14.32721
vt 0.4162856 4.514524
vt 2.371705 8.571428
vt 12.37171 8.571428
vt 2.371705 9.285714
vt 12.37171 9.285714
vt 1.009242 4.987344
vt 2.35775 14.896
vt 1.192627 15.01993
vt 0.4266803 5.049308
vt 2.763442 9.285714
vt 12.76344 9.285714
vt 2.763442 10
vt 12.76344 10
vt 0.9955309 5.623627
vt 1.176285 15.62199
vt 0.00466305 15.60885
vt 0.4097197 5.617054
vt -0.5858481 0
vt -0.5858481 0.7142857
vt -0.5848427 0
vt -1.170691 0
vt -0.5848427 0.7142857
vt -1.170691 1.428571
vt -0.5848427 1.428571
vt -1.166673 0
vt -1.752521 0
vt -1.166673 1.428571
vt -1.752521 2.142857
vt -1.166673 2.142857
vt -1.743493 0
vt -2.329341 0
vt -1.743493 2.142857
vt -2.329341 2.857143
vt -1.743493 2.857143
vt -2.313325 0
vt -2.899173 0
vt -2.313325 2.857143
vt -2.899173 3.571429
vt -2.313325 3.571429
vt -2.874211 0
vt -3.460059 0
vt -2.874211 3.571429
vt -3.460059 4.285714
vt -2.874211 4.285714
vt -3.424227 0
vt -4.010075 0
vt -3.424227 4.285714
vt -4.010075 5
vt -3.424227 5
vt -3.961484 0
vt -4.547332 0
vt -3.961484 5
vt -4.547332 5.714286
vt -3.961484 5.714286
vt -4.48414 0
vt -5.069988 0
vt -4.48414 5.714286
vt -5.069988 6.428571
vt -4.48414 6.428571
vt -4.990401 0
vt -5.576249 0
vt -4.990401 6.428571
vt -5.576249 7.142857
vt -4.990401 7.142857
vt -5.478526 0
vt -6.064375 0
vt -5.478526 7.142857
vt -6.064375 7.857143
vt -5.478526 7.857143
vt -5.946848 0
vt -6.532697 0
vt -5.946848 7.857143
vt -6.532697 8.571428
vt -5.946848 8.571428
vt -6.393748 0
vt -6.979595 0
vt -6.393748 8.571428
vt -6.979595 9.285714
vt -6.393748 9.285714
vt -6.817702 0
vt -7.40355 0
vt -6.817702 9.285714
vt -7.40355 10
vt -6.817702 10
vt -0.2929158 0
vt 0.8787805 0
vt -0.2929158 0.7142857
vt 0.8787805 0.7142857
vt 0.2919149 0
vt 1.463611 0
vt 0.2919149 0.7142857
vt 1.463611 1.428571
vt 0.2919149 1.428571
vt 0.8737479 0
vt 2.045444 0
vt 0.8737479 1.428571
vt 2.045444 2.142857
vt 0.8737479 2.142857
vt 1.450559 0
vt 2.622256 0
vt 1.450559 2.142857
vt 2.622256 2.857143
vt 1.450559 2.857143
vt 2.020408 0
vt 3.192105 0
vt 2.020408 2.857143
vt 3.192105 3.571429
vt 2.020408 3.571429
vt 2.581289 0
vt 3.752985 0
vt 2.581289 3.571429
vt 3.752985 4.285714
vt 2.581289 4.285714
vt 3.131302 0
vt 4.302999 0
vt 3.131302 4.285714
vt 4.302999 5
vt 3.131302 5
vt 3.668557 0
vt 4.840252 0
vt 3.668557 5
vt 4.840252 5.714286
vt 3.668557 5.714286
vt 4.191217 0
vt 5.362913 0
vt 4.191217 5.714286
vt 5.362913 6.428571
vt 4.191217 6.428571
vt 4.697479 0
vt 5.869176 0
vt 4.697479 6.428571
vt 5.869176 7.142857
vt 4.697479 7.142857
vt 5.185594 0
vt 6.357291 0
vt 5.185594 7.142857
vt 6.357291 7.857143
vt 5.185594 7.857143
vt 5.653933 0
vt 6.825631 0
vt 5.653933 7.857143
vt 6.825631 8.571428
vt 5.653933 8.571428
vt 6.100817 0
vt 7.272512 0
vt 6.100817 8.571428
vt 7.272512 9.285714
vt 6.100817 9.285714
vt 6.524781 0
vt 7.696476 0
vt 6.524781 9.285714
vt 7.696476 10
vt 6.524781 10
vt -3.180016 0
vt -13.18002 0
vt -3.180016 10
vt -13.18002 10

vn 0 0 -1
vn 0 1 0
vn -0.05855967 0 -0.9982839
vn -0.1169184 0 -0.9931415
vn -0.1748758 0 -0.9845905
vn -0.232233 0 -0.9726602
vn -0.2887931 0 -0.9573916
vn -0.3443621 0 -0.9388369
vn -0.3987491 0 -0.9170601
vn -0.4517675 0 -0.8921357
vn -0.5032354 0 -0.8641494
vn -0.5529761 0 -0.8331971
vn -0.6008189 0 -0.7993851
vn -0.6465997 0 -0.7628295
vn -0.690161 0 -0.7236558
vn 0.9995709 0 -0.02929158
vn 0.9982839 0 -0.05855944
vn 0.9976643 0 -0.06830795
vn 0.9931415 0 -0.1169186
vn 0.9961402 0 -0.08777706
vn 0.9845904 0 -0.1748763
vn 0.9892905 0 -0.1459598
vn 0.9726602 0 -0.232233
vn 0.9790453 0 -0.2036427
vn 0.9573917 0 -0.2887926
vn 0.9654403 0 -0.2606241
vn 0.938837 0 -0.344362
vn 0.9485213 0 -0.3167132
vn 0.91706 0 -0.3987493
vn 0.9283469 0 -0.3717151
vn 0.8921356 0 -0.4517677
vn 0.9049861 0 -0.4254412
vn 0.8641495 0 -0.5032353
vn 0.8785195 0 -0.4777064
vn 0.8331969 0 -0.5529763
vn 0.8490377 0 -0.5283322
vn 0.7993852 0 -0.6008189
vn 0.8166411 0 -0.5771459
vn 0.7628296 0 -0.6465996
vn 0.7814432 0 -0.6239763
vn 0.7236556 0 -0.6901612
vn 0.7435613 0 -0.6686678
vn 0.703129 0 -0.7110623
vn -0.9995709 0 0.02929158
vn -0.9982839 0 0.05855944
vn -0.9976643 0 0.06830795
vn -0.9931415 0 0.1169186
vn -0.9961402 0 0.08777706
vn -0.9845904 0 0.1748763
vn -0.9892905 0 0.1459598
vn -0.9726602 0 0.232233
vn -0.9790453 0 0.2036427
vn -0.9573917 0 0.2887926
vn -0.9654403 0 0.2606241
vn -0.938837 0 0.344362
vn -0.9485213 0 0.3167132
vn -0.91706 0 0.3987493
vn -0.9283469 0 0.3717151
vn -0.8921356 0 0.4517677
vn -0.9049861 0 0.4254412
vn -0.8641495 0 0.5032353
vn -0.8785195 0 0.4777064
vn -0.8331969 0 0.5529763
vn -0.8490377 0 0.5283322
vn -0.7993852 0 0.6008189
vn -0.8166411 0 0.5771459
vn -0.7628296 0 0.6465996
vn -0.7814432 0 0.6239763
vn -0.7236556 0 0.6901612
vn -0.7435613 0 0.6686678
vn -0.703129 0 0.7110623
vn 0.7313537 0 0.6819984

usemtl Lit
f 7/119/20 10/118/19 6/117/18
f 11/124/22 14/123/21 10/122/19
f 15/129/24 18/128/23 14/127/21
f 19/134/26 22/133/25 18/132/23
f 23/139/28 26/138/27 22/137/25
f 27/144/30 30/143/29 26/142/27
f 31/149/32 34/148/31 30/147/29
f 35/154/34 38/153/33 34/152/31
f 39/159/36 42/158/35 38/157/33
f 43/164/38 46/163/37 42/162/35
f 47/169/40 50/168/39 46/167/37
f 51/174/42 54/173/41 50/172/39
f 55/179/43 58/178/43 54/177/41
f 5/186/46 9/187/47 8/188/48
f 9/191/47 13/192/49 12/193/50
f 13/196/49 17/197/51 16/198/52
f 17/201/51 21/202/53 20/203/54
f 21/206/53 25/207/55 24/208/56
f 25/211/55 29/212/57 28/213/58
f 29/216/57 33/217/59 32/218/60
f 33/221/59 37/222/61 36/223/62
f 37/226/61 41/227/63 40/228/64
f 41/231/63 45/232/65 44/233/66
f 45/236/65 49/237/67 48/238/68
f 49/241/67 53/242/69 52/243/70
f 53/246/69 57/247/71 56/248/71
f 2/2/1 4/4/1 3/3/1
f 3/3/1 1/1/1 2/2/1
f 4/6/2 5/7/2 6/8/2
f 6/8/2 3/5/2 4/6/2
f 5/10/3 8/12/3 7/11/3
f 7/11/3 6/9/3 5/10/3
f 8/14/2 9/15/2 10/16/2
f 10/16/2 7/13/2 8/14/2
f 9/18/4 12/20/4 11/19/4
f 11/19/4 10/17/4 9/18/4
f 12/22/2 13/23/2 14/24/2
f 14/24/2 11/21/2 12/22/2
f 13/26/5 16/28/5 15/27/5
f 15/27/5 14/25/5 13/26/5
f 16/30/2 17/31/2 18/32/2
f 18/32/2 15/29/2 16/30/2
f 17/34/6 20/36/6 19/35/6
f 19/35/6 18/33/6 17/34/6
f 20/38/2 21/39/2 22/40/2
f 22/40/2 19/37/2 20/38/2
f 21/42/7 24/44/7 23/43/7
f 23/43/7 22/41/7 21/42/7
f 24/46/2 25/47/2 26/48/2
f 26/48/2 23/45/2 24/46/2
f 25/50/8 28/52/8 27/51/8
f 27/51/8 26/49/8 25/50/8
f 28/54/2 29/55/2 30/56/2
f 30/56/2 27/53/2 28/54/2
f 29/58/9 32/60/9 31/59/9
f 31/59/9 30/57/9 29/58/9
f 32/62/2 33/63/2 34/64/2
f 34/64/2 31/61/2 32/62/2
f 33/66/10 36/68/10 35/67/10
f 35/67/10 34/65/10 33/66/10
f 36/70/2 37/71/2 38/72/2
f 38/72/2 35/69/2 36/70/2
f 37/74/11 40/76/11 39/75/11
f 39/75/11 38/73/11 37/74/11
f 40/78/2 41/79/2 42/80/2
f 42/80/2 39/77/2 40/78/2
f 41/82/12 44/84/12 43/83/12
f 43/83/12 42/81/12 41/82/12
f 44/86/2 45/87/2 46/88/2
f 46/88/2 43/85/2 44/86/2
f 45/90/13 48/92/13 47/91/13
f 47/91/13 46/89/13 45/90/13
f 48/94/2 49/95/2 50/96/2
f 50/96/2 47/93/2 48/94/2
f 49/98/14 52/100/14 51/99/14
f 51/99/14 50/97/14 49/98/14
f 52/102/2 53/103/2 54/104/2
f 54/104/2 51/101/2 52/102/2
f 53/106/15 56/108/15 55/107/15
f 55/107/15 54/105/15 53/106/15
f 56/110/2 57/111/2 58/112/2
f 58/112/2 55/109/2 56/110/2
f 3/3/16 6/114/18 59/113/17
f 59/113/17 1/1/16 3/3/16
f 6/117/18 10/118/19 60/116/19
f 60/116/19 59/115/17 6/117/18
f 10/122/19 14/123/21 61/121/21
f 61/121/21 60/120/19 10/122/19
f 14/127/21 18/128/23 62/126/23
f 62/126/23 61/125/21 14/127/21
f 18/132/23 22/133/25 63/131/25
f 63/131/25 62/130/23 18/132/23
f 22/137/25 26/138/27 64/136/27
f 64/136/27 63/135/25 22/137/25
f 26/142/27 30/143/29 65/141/29
f 65/141/29 64/140/27 26/142/27
f 30/147/29 34/148/31 66/146/31
f 66/146/31 65/145/29 30/147/29
f 34/152/31 38/153/33 67/151/33
f 67/151/33 66/150/31 34/152/31
f 38/157/33 42/158/35 68/156/35
f 68/156/35 67/155/33 38/157/33
f 42/162/35 46/163/37 69/161/37
f 69/161/37 68/160/35 42/162/35
f 46/167/37 50/168/39 70/166/39
f 70/166/39 69/165/37 46/167/37
f 50/172/39 54/173/41 71/171/41
f 71/171/41 70/170/39 50/172/39
f 54/177/41 58/178/43 72/176/43
f 72/176/43 71/175/41 54/177/41
f 73/181/45 5/183/46 4/182/44
f 4/182/44 2/180/44 73/181/45
f 74/185/47 9/187/47 5/186/46
f 5/186/46 73/184/45 74/185/47
f 75/190/49 13/192/49 9/191/47
f 9/191/47 74/189/47 75/190/49
f 76/195/51 17/197/51 13/196/49
f 13/196/49 75/194/49 76/195/51
f 77/200/53 21/202/53 17/201/51
f 17/201/51 76/199/51 77/200/53
f 78/205/55 25/207/55 21/206/53
f 21/206/53 77/204/53 78/205/55
f 79/210/57 29/212/57 25/211/55
f 25/211/55 78/209/55 79/210/57
f 80/215/59 33/217/59 29/216/57
f 29/216/57 79/214/57 80/215/59
f 81/220/61 37/222/61 33/221/59
f 33/221/59 80/219/59 81/220/61
f 82/225/63 41/227/63 37/226/61
f 37/226/61 81/224/61 82/225/63
f 83/230/65 45/232/65 41/231/63
f 41/231/63 82/229/63 83/230/65
f 84/235/67 49/237/67 45/236/65
f 45/236/65 83/234/65 84/235/67
f 85/240/69 53/242/69 49/241/67
f 49/241/67 84/239/67 85/240/69
f 86/245/71 57/247/71 53/246/69
f 53/246/69 85/244/69 86/245/71
f 58/251/72 57/252/72 86/250/72
f 86/250/72 72/249/72 58/251/72

